<svg xmlns="http://www.w3.org/2000/svg" xmlns:xlink="http://www.w3.org/1999/xlink" width="28" height="18" viewBox="0 0 28 28" fill="#FFFFFF">
  <path d="M18.103516 6.9355469C17.920891 6.9164219 17.733047 6.94725 17.560547 7.03125C17.217547 7.19825 17 7.5476875 17 7.9296875L17 11.998047L4 11.998047C2.895 11.998047 2 12.893047 2 13.998047L2 15.998047C2 17.103047 2.895 17.998047 4 17.998047L17 17.998047L17 22.070312C17 22.453312 17.217547 22.80175 17.560547 22.96875C17.700547 23.03775 17.851 23.070312 18 23.070312C18.219 23.070313 18.436234 23.000328 18.615234 22.861328L27.685547 15.789062C27.928547 15.599063 28.070312 15.310953 28.070312 15.001953C28.070312 14.692953 27.928547 14.401891 27.685547 14.212891L18.615234 7.140625C18.464234 7.023125 18.286141 6.9546719 18.103516 6.9355469 z" fill="#FFFFFF" />
</svg>
